<svg width="174" height="174" viewBox="0 0 174 174" fill="none" xmlns="http://www.w3.org/2000/svg">
<g id="hi-five">
<path id="Union" fill-rule="evenodd" clip-rule="evenodd" d="M84.0879 24.4247C84.0528 24.4281 84.0193 24.4281 83.9842 24.4281C83.1075 24.4281 82.3697 23.7438 82.3161 22.8554L81.6469 11.8131C81.5917 10.8896 82.2944 10.0965 83.2163 10.0413C84.1448 9.99446 84.9328 10.6871 84.988 11.6107L85.6573 22.653C85.7125 23.5765 85.0098 24.3695 84.0879 24.4247ZM92.4494 36.2047C92.6385 36.275 92.8325 36.3068 93.0233 36.3068C93.7059 36.3068 94.3483 35.8852 94.5943 35.2059L101.789 15.4636C102.105 14.5953 101.658 13.6349 100.79 13.3187C99.918 13.0025 98.9593 13.4509 98.6448 14.3175L91.4506 34.0599C91.1344 34.9282 91.5811 35.8885 92.4494 36.2047ZM75.4507 33.2955C74.8835 33.2955 74.3297 33.006 74.0152 32.484L66.9883 20.7708C66.5131 19.9778 66.7691 18.9505 67.5621 18.4754C68.3552 18.0019 69.3825 18.2562 69.8576 19.0492L76.8845 30.7608C77.3597 31.5538 77.1037 32.5811 76.3107 33.0562C76.0413 33.2185 75.7435 33.2955 75.4507 33.2955ZM126.07 112.062L147.988 148.033C148.47 148.823 148.22 149.852 147.431 150.332C146.641 150.816 145.61 150.565 145.132 149.775L124.093 115.245L97.3152 131.885L110.683 154.062C111.16 154.855 110.906 155.882 110.114 156.359C109.843 156.523 109.545 156.6 109.251 156.6C108.685 156.6 108.132 156.314 107.817 155.792L93.5959 132.201C93.1241 131.416 93.3684 130.399 94.1447 129.916L98.0413 127.495L87.4775 108.057C86.7798 109.765 86.1424 111.164 85.6053 112.096L75.7141 129.225L78.4295 131.144C78.7992 131.405 79.0469 131.805 79.1171 132.255C79.1857 132.703 79.0703 133.16 78.7959 133.523L56.042 163.469C55.7141 163.901 55.2139 164.13 54.7086 164.13C54.3824 164.13 54.0561 164.035 53.7616 163.842L27.6616 146.108C26.9071 145.594 26.703 144.572 27.2015 143.807L48.115 111.852C48.3643 111.472 48.7558 111.209 49.2025 111.124C49.6475 111.042 50.1093 111.14 50.4807 111.401L53.0439 113.213C54.6818 105.154 55.2507 97.9031 54.7086 91.6658C54.2652 84.8765 51.7724 78.7882 46.8569 72.4706C46.7247 72.3117 46.4369 71.9905 46.0856 71.599C43.422 68.6242 42.0869 66.9645 41.8544 65.7599C41.5699 64.5168 41.8644 62.75 43.1945 61.7345C44.1833 60.9833 45.9902 60.4362 48.9967 62.1193C50.3268 62.8923 51.5615 63.7455 52.7026 64.6222L47.762 55.437C46.3265 53.4059 46.7816 50.7424 48.8478 49.1914C50.9258 47.6305 53.9039 47.9584 55.6288 49.9309C55.6773 49.9861 55.7242 50.0447 55.7643 50.1066L59.3347 55.4889L56.0136 45.5241C55.3661 44.3362 55.2306 42.9074 55.6472 41.5739C56.0805 40.1853 57.071 39.0526 58.3643 38.4653C59.7044 37.7911 61.3591 37.6941 62.8531 38.2211C64.2385 38.7113 65.3611 39.7135 65.9316 40.9683L70.9107 54.6055L70.4355 48.1407C69.9871 45.4939 71.9045 42.8856 74.8173 42.3569C77.7937 42.0842 80.3853 44.1538 80.6313 46.8625L83.2396 80.4746L86.0637 75.7683C87.1328 74.0851 90.3184 69.076 95.2188 72.0155L96.0554 72.5175C97.6347 73.4661 98.3475 75.3048 97.7836 76.9913C96.6275 80.9899 92.5001 94.6021 89.0418 103.995C89.0538 104.013 89.0688 104.028 89.0837 104.043L89.0838 104.043C89.0931 104.053 89.1024 104.062 89.111 104.072C89.1195 104.082 89.1274 104.093 89.1338 104.105L100.886 125.726L117.181 115.599L110.201 97.9917C108.394 93.5732 109.661 88.5021 113.357 85.3885L127.084 74.0032C127.677 73.4929 127.656 72.75 127.432 72.2297C127.32 71.9754 126.877 71.1389 125.818 71.266C123.467 71.5425 119.362 73.6052 117.986 74.297L117.968 74.306L111.669 77.4564C110.974 77.8061 110.129 77.6271 109.634 77.0298C109.137 76.4325 109.117 75.5725 109.586 74.9518L125.649 53.7037C126.177 53.0813 126.177 52.1628 125.712 51.6191C125.316 51.1238 124.856 51.0285 124.533 51.0285C123.996 51.0285 123.46 51.2945 123.104 51.7412L110.556 67.4665C109.982 68.1892 108.93 68.3097 108.205 67.7308C107.685 67.3142 107.493 66.6533 107.633 66.0443C107.578 65.7398 107.576 65.4253 107.702 65.1191L117.406 41.3614C117.588 40.9549 117.595 40.627 117.449 40.3258C117.248 39.9109 116.785 39.5779 116.208 39.4341C115.495 39.2718 114.419 39.7452 114.093 40.3994L103.755 63.9145C103.385 64.7594 102.401 65.1459 101.551 64.7728C100.872 64.475 100.512 63.7807 100.581 63.0813C100.581 63.0486 100.577 63.0167 100.572 62.9848L100.572 62.9847C100.566 62.9401 100.56 62.8956 100.566 62.8488L103.243 43.1065C103.258 43.0027 103.28 42.9007 103.313 42.802C103.424 42.469 103.3 42.1762 103.216 42.0323C103.045 41.7362 102.746 41.5271 102.398 41.4568C101.64 41.2895 100.872 41.6994 100.64 42.1779L95.4848 63.4661C95.4413 63.6418 95.3677 63.8007 95.2774 63.9463C95.2746 63.9519 95.2727 63.9578 95.2708 63.9636L95.2708 63.9636C95.2681 63.9717 95.2655 63.9796 95.2607 63.9865C95.1502 64.1554 95.008 64.2976 94.8474 64.4148C94.8168 64.4372 94.7819 64.454 94.7467 64.471L94.7467 64.471C94.7242 64.4818 94.7016 64.4927 94.6801 64.5051C94.5563 64.5754 94.4308 64.6356 94.2936 64.6724C94.2796 64.6763 94.2671 64.6831 94.2544 64.6899C94.2399 64.6977 94.2253 64.7056 94.2083 64.7092C94.1823 64.7146 94.1568 64.7128 94.1313 64.711C94.1091 64.7094 94.0869 64.7078 94.0644 64.7109C94.0386 64.7147 94.0133 64.7206 93.988 64.7265C93.946 64.7363 93.9041 64.746 93.8603 64.746C93.7997 64.746 93.7383 64.736 93.6773 64.726L93.6452 64.7208L93.6127 64.7159C93.605 64.7148 93.5974 64.7139 93.5899 64.7131L93.5705 64.7113C93.5518 64.7097 93.5331 64.708 93.514 64.7042C93.4972 64.7009 93.4822 64.7025 93.4654 64.6992C93.4179 64.6881 93.3771 64.6653 93.336 64.6424C93.3091 64.6275 93.2821 64.6124 93.253 64.6005L93.1992 64.5796C93.0986 64.5408 92.9997 64.5026 92.9117 64.4415C92.8471 64.3968 92.7945 64.3401 92.7416 64.2831C92.7232 64.2633 92.7048 64.2434 92.6858 64.224C92.6696 64.2079 92.6532 64.192 92.6369 64.1762L92.6366 64.1759L92.6363 64.1756C92.575 64.1162 92.5141 64.0573 92.4666 63.9848C92.4121 63.9004 92.3787 63.8071 92.3447 63.7121L92.3441 63.7103C92.3365 63.6892 92.3289 63.668 92.3211 63.6468C92.3095 63.6157 92.2942 63.5867 92.2789 63.5578L92.2789 63.5578C92.2564 63.5153 92.234 63.4731 92.224 63.4243L89.5454 50.8762C89.522 50.7625 89.5086 50.6453 89.5086 50.5282C89.5086 50.2589 89.2275 49.859 88.8411 49.859C88.4897 49.859 88.1768 50.0899 88.0095 50.3609L88.3408 68.4C88.3575 69.3236 87.6214 70.0865 86.6978 70.1032H86.666C85.7559 70.1032 85.0097 69.3738 84.993 68.4603L84.6584 50.0564C84.655 49.8674 84.6835 49.6783 84.7437 49.4976C85.3293 47.7392 87.0141 46.5128 88.8411 46.5128C90.9491 46.5128 92.741 48.2395 92.8497 50.3275L93.9623 55.5441L97.4189 41.2677C97.434 41.2025 97.4541 41.1372 97.4775 41.0737C98.2655 38.9723 100.785 37.6706 103.089 38.1876C104.344 38.4386 105.458 39.2316 106.111 40.3559C106.706 41.3782 106.858 42.5861 106.541 43.6937L105.448 51.7596L111.066 38.9806C112.119 36.8726 114.69 35.6713 116.976 36.1799C118.572 36.5764 119.826 37.5552 120.462 38.8719C121.044 40.0748 121.049 41.43 120.477 42.6865L114.635 56.9913L120.491 49.6515C121.493 48.3984 122.965 47.6806 124.533 47.6806H124.534C126.005 47.6806 127.374 48.3365 128.291 49.4826C129.781 51.2209 129.783 54.0149 128.255 55.7984L116.566 71.266C119.351 69.8673 122.851 68.2461 125.45 67.9399C127.648 67.7141 129.632 68.8718 130.507 70.9063C131.381 72.9341 130.884 75.1526 129.243 76.5596L115.505 87.955C112.932 90.1199 112.047 93.6535 113.308 96.742L120.072 113.802L123.758 111.512C124.138 111.278 124.596 111.201 125.03 111.306C125.465 111.408 125.838 111.681 126.07 112.062ZM72.9686 127.286L82.7059 110.424C85.6589 105.298 92.4532 83.3941 94.5948 75.9991C94.7002 75.6846 94.471 75.4671 94.3388 75.3885L93.5022 74.8866L93.5007 74.8856C92.5624 74.3236 91.3995 73.6272 88.9147 77.53L83.4169 86.6951C83.0422 87.3192 82.3094 87.6287 81.5983 87.4614C80.8889 87.2941 80.3703 86.6884 80.3134 85.9623L77.3018 47.1469C77.2533 46.6199 76.8769 46.2569 76.6577 46.0879C76.2562 45.78 75.7492 45.6278 75.2741 45.673C74.4844 45.8235 73.5826 46.6718 73.7616 47.7459L75.1185 66.1347C75.1213 66.174 75.1138 66.2101 75.1061 66.2463C75.1005 66.2732 75.0948 66.3002 75.0934 66.3288C75.1352 67.0465 74.7337 67.7375 74.0226 67.9968C73.1543 68.313 72.1939 67.8663 71.8777 66.998L62.8431 42.2365C62.6959 41.9236 62.2759 41.5672 61.7422 41.3782C61.1031 41.1523 60.4004 41.1908 59.8098 41.4852C59.169 41.7764 58.9348 42.2883 58.8478 42.5694C58.6939 43.0596 58.7457 43.5749 58.9883 43.9798C59.0502 44.0852 59.1021 44.1956 59.1406 44.3111L66.4302 66.1799L66.6443 66.5028C67.1546 67.2724 66.9438 68.3114 66.1742 68.8216C65.8948 69.0057 65.5836 69.0659 65.2724 69.0693C65.2475 69.0725 65.2227 69.0781 65.1978 69.0837C65.1591 69.0924 65.1204 69.1011 65.0817 69.1011C64.3807 69.1011 63.7282 68.6577 63.4939 67.9567L63.3952 67.6589L53.0523 52.0641C52.4734 51.4735 51.513 51.3798 50.8605 51.8667C50.3686 52.2348 50.0223 52.8672 50.5259 53.5398C50.5761 53.6084 50.6213 53.6786 50.6564 53.7506L61.3641 73.6602C61.3895 73.7069 61.4007 73.7561 61.412 73.8056L61.412 73.8056L61.412 73.8057L61.412 73.8057L61.412 73.8058L61.412 73.8058C61.4193 73.8377 61.4266 73.8697 61.4377 73.9011C61.4456 73.9236 61.4537 73.9458 61.4618 73.9679C61.4918 74.0497 61.5212 74.1301 61.5331 74.2157C61.5456 74.3059 61.5408 74.3927 61.5359 74.4808L61.5331 74.5352L61.5313 74.5739V74.574C61.5273 74.6661 61.5233 74.7571 61.5013 74.8481C61.4791 74.9353 61.4421 75.0145 61.4044 75.0951C61.3965 75.1119 61.3886 75.1288 61.3808 75.1459C61.3726 75.1633 61.3646 75.1806 61.3566 75.1979C61.3208 75.2752 61.2859 75.3508 61.2353 75.4219C61.1812 75.4982 61.1122 75.5607 61.0416 75.6246L61.0415 75.6246L61.0251 75.6395L60.9977 75.6645C60.9738 75.6864 60.9531 75.7107 60.9324 75.7349C60.9009 75.7718 60.8694 75.8086 60.827 75.8369C60.8146 75.8458 60.8007 75.8499 60.7867 75.8541C60.78 75.8561 60.7732 75.8582 60.7666 75.8607C60.761 75.8629 60.7555 75.8654 60.7501 75.8687C60.7386 75.8763 60.7292 75.8857 60.7198 75.8952C60.7087 75.9063 60.6977 75.9174 60.6832 75.9255C60.541 76.0025 60.3904 76.051 60.2398 76.0828C60.2256 76.0853 60.2118 76.0866 60.198 76.0878L60.1838 76.0892C60.1747 76.0901 60.1655 76.0912 60.1561 76.0928C60.1381 76.0956 60.12 76.0986 60.1018 76.1016C60.0324 76.1131 59.9624 76.1246 59.8935 76.1246C59.8383 76.1246 59.784 76.1147 59.7293 76.1048L59.7289 76.1047C59.7058 76.1005 59.6826 76.0963 59.6592 76.0928C59.6425 76.0902 59.6258 76.0886 59.609 76.0869L59.6089 76.0869C59.5838 76.0845 59.5588 76.0821 59.5338 76.0761C59.348 76.036 59.1707 75.9674 59.0084 75.8653C58.9902 75.8546 58.9741 75.8412 58.9578 75.8276L58.9577 75.8275C58.9486 75.8199 58.9394 75.8123 58.9298 75.8051C58.7943 75.708 58.6738 75.5892 58.5701 75.4504C58.5617 75.4378 58.5504 75.4286 58.5391 75.4194L58.5391 75.4194C58.5353 75.4163 58.5315 75.4132 58.5279 75.41C58.5228 75.4056 58.518 75.401 58.5136 75.3958L58.5113 75.3928L58.5082 75.3885C58.4647 75.3249 54.0996 68.9521 47.3421 65.0221C45.9534 64.2441 45.3109 64.3311 45.2306 64.3913C45.1436 64.4583 45.07 64.8029 45.1219 65.0121C45.1369 65.0689 45.147 65.1241 45.1553 65.181C45.4109 65.8208 47.791 68.48 48.5796 69.3611L48.5835 69.3654C48.97 69.7971 49.2845 70.1501 49.4685 70.3709C54.8491 77.2874 57.5646 83.958 58.0514 91.4099C58.6504 98.3096 57.9728 106.367 56.037 115.323L72.9686 127.286ZM33.7925 95.1991C37.6674 95.1991 40.8195 92.047 40.8195 88.1722C40.8195 84.2973 37.6674 81.1452 33.7925 81.1452C29.9177 81.1452 26.7656 84.2973 26.7656 88.1722C26.7656 92.0487 29.9177 95.1991 33.7925 95.1991ZM33.7925 84.4914C35.822 84.4914 37.4733 86.1427 37.4733 88.1722C37.4733 90.2016 35.822 91.8529 33.7925 91.8529C31.7631 91.8529 30.1118 90.2016 30.1118 88.1722C30.1118 86.1427 31.7631 84.4914 33.7925 84.4914ZM132.532 85.6995C132.614 85.2495 132.877 84.8513 133.26 84.5987C133.641 84.3477 134.11 84.264 134.562 84.3661L142.208 86.1429L143.574 78.3464C143.735 77.4362 144.605 76.8272 145.512 76.9878C146.42 77.1485 147.029 78.0151 146.87 78.9253L145.197 88.4618C145.117 88.9135 144.854 89.3134 144.471 89.5677C144.088 89.822 143.62 89.9057 143.17 89.8019L135.515 88.0251L134.321 94.6589C134.175 95.4686 133.471 96.0358 132.676 96.0358C132.577 96.0358 132.479 96.0275 132.378 96.009C131.468 95.8451 130.862 94.9751 131.026 94.0666L132.532 85.6995ZM32.624 50.0262C34.8425 50.0262 36.6394 48.2293 36.6394 46.0108C36.6394 43.7923 34.8425 41.9954 32.624 41.9954C30.4055 41.9954 28.6086 43.7923 28.6086 46.0108C28.6086 48.2293 30.4072 50.0262 32.624 50.0262ZM136.685 35.8051C136.685 37.6531 135.187 39.1513 133.339 39.1513C131.491 39.1513 129.993 37.6531 129.993 35.8051C129.993 33.9571 131.491 32.4589 133.339 32.4589C135.187 32.4589 136.685 33.9571 136.685 35.8051Z" fill="#7A24A1"/>
</g>
</svg>
