<svg width="154" height="154" viewBox="0 0 154 154" fill="none" xmlns="http://www.w3.org/2000/svg">
<g id="lock">
<path id="Union" fill-rule="evenodd" clip-rule="evenodd" d="M115.433 97.9666H129.048C132.303 97.9666 134.967 100.63 134.967 103.886V125.788C134.967 129.044 132.303 131.707 129.048 131.707H25.1616C21.9059 131.707 19.2422 129.044 19.2422 125.788V103.886C19.2422 100.63 21.9059 97.9666 25.1616 97.9666H38.4803V66.3776C38.4803 58.3361 45.7701 51.7951 54.7291 51.7951H56.9785V39.3643C56.9785 28.2669 66.0071 19.2383 77.1046 19.2383C82.4631 19.2383 87.5124 21.3367 91.3215 25.1473C95.1322 28.958 97.2306 34.0072 97.2306 39.3643V51.7951H99.184C108.143 51.7951 115.433 58.3361 115.433 66.3776V97.9666ZM77.1046 22.198C67.6394 22.198 59.9382 29.8992 59.9382 39.3643V51.7951H94.2709V39.3643C94.2709 34.7975 92.4803 30.4911 89.229 27.2399C85.9778 23.9886 81.6714 22.198 77.1046 22.198ZM54.7291 54.7548C47.4009 54.7548 41.44 59.9684 41.44 66.3776V97.9666H112.473V66.3776C112.473 59.9684 106.512 54.7548 99.184 54.7548H54.7291ZM43.2617 116.021H47.2115C47.8656 116.021 48.3954 115.491 48.3954 114.837C48.3954 114.183 47.8656 113.653 47.2115 113.653H43.1137L45.9758 110.791C46.4375 110.329 46.4375 109.579 45.9758 109.117C45.5141 108.656 44.7638 108.656 44.3021 109.117L41.588 111.831V108.03C41.588 107.376 41.0582 106.846 40.4041 106.846C39.75 106.846 39.2202 107.376 39.2202 108.03V111.979L36.3582 109.117C35.8965 108.656 35.1462 108.656 34.6845 109.117C34.2228 109.579 34.2228 110.329 34.6845 110.791L37.5465 113.653H33.5968C32.9427 113.653 32.4129 114.183 32.4129 114.837C32.4129 115.491 32.9427 116.021 33.5968 116.021H37.3985L34.6845 118.735C34.2228 119.197 34.2228 119.947 34.6845 120.409C35.1462 120.87 35.8965 120.87 36.3582 120.409L39.2202 117.547V121.644C39.2202 122.298 39.75 122.828 40.4041 122.828C41.0582 122.828 41.588 122.298 41.588 121.644V117.695L44.3021 120.409C44.7638 120.87 45.5141 120.87 45.9758 120.409C46.4375 119.947 46.4375 119.197 45.9758 118.735L43.2617 116.021ZM67.7223 116.021H71.6291C72.2832 116.021 72.813 115.491 72.813 114.837C72.813 114.183 72.2832 113.653 71.6291 113.653H67.5758L70.4008 110.784C70.8596 110.319 70.8536 109.569 70.3875 109.11C69.9228 108.651 69.1725 108.657 68.7138 109.123L66.0056 111.873V108.03C66.0056 107.376 65.4758 106.846 64.8218 106.846C64.1677 106.846 63.6379 107.376 63.6379 108.03V111.873L60.9297 109.125C60.471 108.659 59.7222 108.653 59.256 109.111C58.7899 109.57 58.7839 110.319 59.2427 110.785L62.0677 113.655H58.0144C57.3603 113.655 56.8305 114.184 56.8305 114.838C56.8305 115.493 57.3603 116.022 58.0144 116.022H61.9212L59.2427 118.744C58.7839 119.208 58.7899 119.959 59.256 120.418C59.7207 120.876 60.471 120.87 60.9297 120.404L63.6379 117.653V121.644C63.6379 122.298 64.1677 122.828 64.8218 122.828C65.4758 122.828 66.0056 122.298 66.0056 121.644V117.653L68.7138 120.403C69.1725 120.869 69.9213 120.875 70.3875 120.416C70.8536 119.957 70.8596 119.208 70.4008 118.742L67.7223 116.021ZM92.245 116.021H96.0467C96.7008 116.021 97.2306 115.491 97.2306 114.837C97.2306 114.183 96.7008 113.653 96.0467 113.653H92.097L94.959 110.791C95.4207 110.329 95.4207 109.579 94.959 109.117C94.4973 108.656 93.747 108.656 93.2853 109.117L90.4233 111.979V108.03C90.4233 107.376 89.8935 106.846 89.2394 106.846C88.5853 106.846 88.0555 107.376 88.0555 108.03V111.831L85.3414 109.117C84.8797 108.656 84.1294 108.656 83.6677 109.117C83.206 109.579 83.206 110.329 83.6677 110.791L86.5298 113.653H82.432C81.7779 113.653 81.2482 114.183 81.2482 114.837C81.2482 115.491 81.7779 116.021 82.432 116.021H86.3818L83.6677 118.735C83.206 119.197 83.206 119.947 83.6677 120.409C84.1294 120.87 84.8797 120.87 85.3414 120.409L88.0555 117.695V121.644C88.0555 122.298 88.5853 122.828 89.2394 122.828C89.8935 122.828 90.4233 122.298 90.4233 121.644V117.547L93.2853 120.409C93.747 120.87 94.4973 120.87 94.959 120.409C95.4207 119.947 95.4207 119.197 94.959 118.735L92.245 116.021ZM116.663 116.021H120.464C121.118 116.021 121.648 115.491 121.648 114.837C121.648 114.183 121.118 113.653 120.464 113.653H116.515L119.377 110.791C119.838 110.329 119.838 109.579 119.377 109.117C118.915 108.656 118.165 108.656 117.703 109.117L114.989 111.831V108.03C114.989 107.376 114.459 106.846 113.805 106.846C113.151 106.846 112.621 107.376 112.621 108.03V111.979L109.759 109.117C109.297 108.656 108.547 108.656 108.085 109.117C107.624 109.579 107.624 110.329 108.085 110.791L110.947 113.653H106.998C106.344 113.653 105.814 114.183 105.814 114.837C105.814 115.491 106.344 116.021 106.998 116.021H110.799L108.085 118.735C107.624 119.197 107.624 119.947 108.085 120.409C108.547 120.87 109.297 120.87 109.759 120.409L112.621 117.547V121.644C112.621 122.298 113.151 122.828 113.805 122.828C114.459 122.828 114.989 122.298 114.989 121.644V117.695L117.703 120.409C118.165 120.87 118.915 120.87 119.377 120.409C119.838 119.947 119.838 119.197 119.377 118.735L116.663 116.021ZM69.8521 76.6565C69.8521 72.6521 73.0989 69.4053 77.1034 69.4053C81.1079 69.4053 84.3547 72.6521 84.3547 76.6565C84.3547 79.7184 82.4516 82.3244 79.7671 83.3869V90.5672H74.4397V83.3869C71.7567 82.3244 69.8521 79.7184 69.8521 76.6565Z" fill="#7A24A1"/>
</g>
</svg>
